<svg width="861" height="1080" viewBox="0 0 861 1080" fill="none" xmlns="http://www.w3.org/2000/svg">
<path d="M577.943 379C590.404 379 600.477 381.08 608.162 385.239C616.054 389.19 620 394.39 620 400.837C620 404.164 618.858 407.076 616.573 409.571C614.289 412.067 611.589 413.315 608.473 413.315C604.527 413.315 601.516 412.275 599.439 410.195C597.362 407.908 595.077 404.58 592.585 400.213C589.678 395.014 586.77 391.166 583.862 388.671C580.955 385.967 576.697 384.615 571.089 384.615C556.759 384.615 543.779 390.126 532.148 401.149C520.725 412.171 512.625 427.873 507.849 448.254L499.749 481.945H548.971L546.478 492.863H497.256L465.792 623.883C459.561 650.295 450.215 669.533 437.754 681.595C425.5 693.865 409.82 700 390.713 700C380.536 700 371.917 698.024 364.855 694.073C357.794 690.121 354.263 685.234 354.263 679.411C354.263 675.668 355.509 672.652 358.002 670.364C360.494 668.077 363.402 666.933 366.725 666.933C369.84 666.933 372.332 667.869 374.201 669.74C376.278 671.612 378.874 674.836 381.99 679.411C384.897 684.194 387.701 687.834 390.401 690.329C393.101 692.825 396.632 694.073 400.993 694.073C410.962 694.073 419.373 688.77 426.227 678.163C433.081 667.557 438.896 652.167 443.673 631.994L477.007 492.863H401.305L369.84 623.571C363.402 649.983 353.952 669.325 341.491 681.595C329.029 693.865 313.245 700 294.138 700C284.169 700 275.653 698.024 268.592 694.073C261.531 690.121 258 685.234 258 679.411C258 675.668 259.246 672.652 261.738 670.364C264.231 668.077 267.034 666.933 270.15 666.933C273.265 666.933 275.965 667.973 278.25 670.052C280.326 672.132 282.715 675.252 285.415 679.411C288.53 684.402 291.438 688.042 294.138 690.329C296.838 692.825 300.368 694.073 304.73 694.073C323.629 694.073 337.856 673.276 347.41 631.682L380.744 493.799L355.198 492.239L386.04 471.338L390.089 455.117C393.205 441.807 399.124 430.056 407.847 419.866C416.57 409.467 427.162 401.461 439.623 395.845C452.292 390.022 465.688 387.111 479.811 387.111C487.495 387.111 494.868 388.255 501.929 390.542C509.199 392.83 514.702 395.741 518.441 399.277C526.748 392.83 535.99 387.839 546.167 384.303C556.344 380.768 566.936 379 577.943 379ZM466.726 481.945L481.991 471.65L487.91 446.694C490.61 435.672 495.595 425.169 502.864 415.187C500.787 408.532 496.945 403.124 491.337 398.965C485.73 394.806 479.603 392.726 472.957 392.726C458.626 392.726 445.75 398.237 434.327 409.259C422.904 420.282 414.804 436.087 410.028 456.676L403.797 481.945H466.726Z" fill="#EFE1D4"/>
</svg>
