<svg width="1920" height="1080" viewBox="0 0 1920 1080" fill="none" xmlns="http://www.w3.org/2000/svg">
<path d="M439.491 529.953C433.675 535.13 426.684 539.199 418.517 542.157C410.474 544.993 402.37 546.411 394.203 546.411C381.953 546.411 370.569 543.205 360.051 536.795C349.657 530.384 341.305 521.754 334.995 510.905C328.808 500.057 325.714 488.222 325.714 475.4C325.714 462.949 328.808 451.422 334.995 440.82C341.305 430.217 349.781 421.834 360.423 415.67C371.064 409.383 382.633 406.239 395.131 406.239C402.926 406.239 410.536 406.979 417.96 408.458C425.385 409.938 431.881 412.033 437.449 414.746V417.704L442.46 446.922C436.892 434.471 430.272 425.224 422.601 419.184C415.053 413.143 405.834 410.122 394.945 410.122C384.18 410.122 374.652 412.896 366.362 418.444C358.072 423.868 351.637 431.574 347.059 441.559C342.481 451.422 340.192 462.702 340.192 475.4C340.192 488.468 342.419 500.118 346.873 510.351C351.328 520.46 357.639 528.412 365.805 534.206C374.096 539.877 383.623 542.712 394.388 542.712C403.421 542.712 411.712 540.431 419.26 535.87C426.931 531.309 432.561 524.96 436.15 516.823V479.284H402.741V475.77H465.661L448.4 484.831V547.705L439.491 529.953Z" fill="#312F30"/>
<path d="M513.441 546.411C505.027 546.411 497.541 544.5 490.983 540.678C484.549 536.733 479.537 531.185 475.949 524.035C472.361 516.885 470.567 508.563 470.567 499.07C470.567 489.454 472.423 480.886 476.135 473.366C479.847 465.846 484.92 459.99 491.354 455.798C497.912 451.484 505.213 449.326 513.256 449.326C519.938 449.326 525.877 450.805 531.074 453.764C536.395 456.723 540.478 460.915 543.324 466.339C546.294 471.64 547.779 477.743 547.779 484.646V485.756H483.559C483.064 489.701 482.817 492.845 482.817 495.187C482.817 503.447 484.239 510.782 487.085 517.193C489.931 523.604 493.953 528.596 499.15 532.172C504.347 535.747 510.41 537.534 517.339 537.534C525.135 537.534 531.816 535.315 537.385 530.877C542.953 526.316 547.098 519.72 549.82 511.09C547.469 522.309 543.076 531 536.642 537.165C530.332 543.329 522.598 546.411 513.441 546.411ZM528.847 482.982C532.806 482.982 534.786 480.886 534.786 476.695C534.786 472.626 533.796 468.743 531.816 465.045C529.96 461.223 527.362 458.141 524.021 455.798C520.804 453.333 517.215 452.1 513.256 452.1C506.079 452.1 499.83 454.935 494.51 460.606C489.189 466.154 485.662 473.613 483.93 482.982H528.847Z" fill="#312F30"/>
<path d="M568.256 537.349V464.86L553.408 462.641L580.135 449.326V466.709C589.786 455.12 599.19 449.326 608.347 449.326C612.183 449.326 615.276 450.251 617.627 452.1C620.102 453.826 621.339 456.107 621.339 458.942C621.339 461.038 620.659 462.764 619.298 464.12C618.06 465.476 616.452 466.154 614.472 466.154C612.74 466.154 611.255 465.784 610.017 465.045C608.904 464.305 607.604 463.195 606.12 461.716C604.511 460.36 603.212 459.374 602.222 458.757C601.232 458.018 599.933 457.648 598.324 457.648C595.231 457.648 592.199 458.88 589.229 461.346C586.26 463.812 583.228 466.955 580.135 470.777V537.349L597.025 544.192H553.964L568.256 537.349Z" fill="#312F30"/>
<path d="M637.365 537.349V464.86L622.517 462.641L649.244 449.326V462.086C655.555 458.387 661.37 455.367 666.691 453.025C672.135 450.559 676.899 449.326 680.982 449.326C686.056 449.326 690.634 450.621 694.717 453.21C698.924 455.675 702.142 459.189 704.369 463.75C719.588 454.134 731.034 449.326 738.706 449.326C746.006 449.326 752.131 451.853 757.081 456.908C762.154 461.963 764.691 468.558 764.691 476.695V537.349L778.982 544.192H737.592L752.812 537.349V477.619C752.812 471.455 750.77 466.216 746.687 461.901C742.727 457.586 737.84 455.429 732.024 455.429C725.59 455.429 716.619 458.88 705.111 465.784C706.349 468.99 706.967 472.626 706.967 476.695V537.349L722.373 544.192H679.869L695.274 537.349V477.619C695.274 471.455 693.232 466.216 689.149 461.901C685.19 457.586 680.302 455.429 674.486 455.429C668.423 455.429 660.009 458.511 649.244 464.675V537.349L664.464 544.192H623.074L637.365 537.349Z" fill="#312F30"/>
<path d="M805.48 546.411C799.417 546.411 794.344 544.685 790.261 541.233C786.177 537.781 784.136 533.035 784.136 526.994C784.136 521.569 786.734 516.638 791.931 512.2C797.252 507.638 803.501 503.693 810.677 500.365C817.978 496.913 827.506 492.906 839.261 488.345L843.715 486.681V477.804C843.715 471.27 841.55 465.784 837.219 461.346C832.888 456.908 827.444 454.689 820.886 454.689C816.184 454.689 811.605 455.983 807.151 458.572C804.8 459.928 803.006 461.839 801.768 464.305C800.531 466.771 799.417 469.791 798.427 473.366C797.314 477.065 796.2 479.838 795.087 481.688C794.097 483.414 792.426 484.277 790.075 484.277C788.219 484.277 786.672 483.66 785.435 482.427C784.321 481.071 783.765 479.407 783.765 477.434C783.765 473.489 786.425 469.359 791.746 465.045C797.19 460.606 803.501 456.908 810.677 453.949C817.854 450.867 823.67 449.326 828.124 449.326C835.92 449.326 842.354 451.915 847.427 457.093C852.624 462.147 855.223 468.805 855.223 477.065V534.206L870.071 535.315L843.715 546.411V522.556C837.157 529.953 830.785 535.808 824.598 540.123C818.535 544.315 812.162 546.411 805.48 546.411ZM812.533 539.199C817.607 539.199 822.618 537.411 827.567 533.836C832.517 530.261 837.9 525.268 843.715 518.857V489.269C828.248 495.31 816.431 500.981 808.265 506.282C800.222 511.46 796.2 517.563 796.2 524.59C796.2 529.028 797.747 532.603 800.84 535.315C803.934 537.904 807.831 539.199 812.533 539.199ZM842.045 396.808L812.533 439.525L827.567 396.808H842.045Z" fill="#312F30"/>
<path d="M886.149 537.349V464.86L871.301 462.641L898.028 449.326V464.675C905.329 460.113 911.887 456.415 917.702 453.579C923.642 450.744 928.9 449.326 933.479 449.326C940.903 449.326 947.09 451.853 952.039 456.908C956.989 461.963 959.464 468.558 959.464 476.695V537.349L973.755 544.192H932.365L947.585 537.349V477.619C947.585 471.455 945.605 466.216 941.645 461.901C937.686 457.586 932.736 455.429 926.797 455.429C922.961 455.429 918.692 456.538 913.99 458.757C909.288 460.853 903.967 463.688 898.028 467.264V537.349L913.248 544.192H871.858L886.149 537.349Z" fill="#312F30"/>
<path d="M1011.15 544.192L1028.41 535.87V416.965L1011.15 408.643H1058.48L1041.21 416.965V535.87L1058.48 544.192H1011.15Z" fill="#312F30"/>
<path d="M1076.8 537.349V464.86L1061.95 462.641L1088.68 449.326V462.086C1094.99 458.387 1100.81 455.367 1106.13 453.025C1111.57 450.559 1116.34 449.326 1120.42 449.326C1125.49 449.326 1130.07 450.621 1134.15 453.21C1138.36 455.675 1141.58 459.189 1143.8 463.75C1159.02 454.134 1170.47 449.326 1178.14 449.326C1185.44 449.326 1191.57 451.853 1196.52 456.908C1201.59 461.963 1204.13 468.558 1204.13 476.695V537.349L1218.42 544.192H1177.03L1192.25 537.349V477.619C1192.25 471.455 1190.21 466.216 1186.12 461.901C1182.16 457.586 1177.28 455.429 1171.46 455.429C1165.03 455.429 1156.05 458.88 1144.55 465.784C1145.78 468.99 1146.4 472.626 1146.4 476.695V537.349L1161.81 544.192H1119.3L1134.71 537.349V477.619C1134.71 471.455 1132.67 466.216 1128.59 461.901C1124.63 457.586 1119.74 455.429 1113.92 455.429C1107.86 455.429 1099.45 458.511 1088.68 464.675V537.349L1103.9 544.192H1062.51L1076.8 537.349Z" fill="#312F30"/>
<path d="M1234.52 537.349V410.677L1219.67 408.458L1246.4 394.774V464.49C1253.45 460.052 1259.95 456.415 1265.89 453.579C1271.83 450.744 1277.15 449.326 1281.85 449.326C1289.28 449.326 1295.46 451.853 1300.41 456.908C1305.36 461.963 1307.84 468.558 1307.84 476.695V537.349L1322.13 544.192H1280.74L1295.96 537.349V477.619C1295.96 471.455 1293.98 466.216 1290.02 461.901C1286.06 457.586 1281.11 455.429 1275.17 455.429C1271.33 455.429 1267 456.476 1262.18 458.572C1257.48 460.668 1252.22 463.504 1246.4 467.079V537.349L1262.92 544.192H1220.23L1234.52 537.349Z" fill="#312F30"/>
<path d="M1372.22 546.411C1364.05 546.411 1356.38 544.192 1349.2 539.753C1342.15 535.315 1336.52 529.336 1332.31 521.816C1328.23 514.172 1326.19 505.913 1326.19 497.036C1326.19 488.407 1328.23 480.455 1332.31 473.181C1336.52 465.908 1342.15 460.113 1349.2 455.798C1356.38 451.484 1364.05 449.326 1372.22 449.326C1380.38 449.326 1387.93 451.484 1394.86 455.798C1401.91 460.113 1407.48 465.908 1411.57 473.181C1415.77 480.455 1417.88 488.407 1417.88 497.036C1417.88 505.913 1415.77 514.172 1411.57 521.816C1407.48 529.336 1401.91 535.315 1394.86 539.753C1387.93 544.192 1380.38 546.411 1372.22 546.411ZM1372.22 543.452C1378.53 543.452 1384.1 541.603 1388.92 537.904C1393.87 534.082 1397.71 528.658 1400.43 521.631C1403.15 514.604 1404.51 506.406 1404.51 497.036C1404.51 488.16 1403.15 480.332 1400.43 473.551C1397.83 466.771 1394.06 461.531 1389.11 457.833C1384.28 454.011 1378.65 452.1 1372.22 452.1C1365.78 452.1 1360.09 453.949 1355.14 457.648C1350.19 461.223 1346.36 466.401 1343.63 473.181C1340.91 479.962 1339.55 487.913 1339.55 497.036C1339.55 506.282 1340.85 514.419 1343.45 521.446C1346.17 528.473 1350.01 533.898 1354.96 537.719C1359.91 541.541 1365.66 543.452 1372.22 543.452Z" fill="#312F30"/>
<path d="M1569.23 392C1576.65 392 1582.65 393.233 1587.23 395.698C1591.93 398.041 1594.29 401.123 1594.29 404.945C1594.29 406.917 1593.61 408.643 1592.24 410.122C1590.88 411.602 1589.27 412.342 1587.42 412.342C1585.07 412.342 1583.27 411.725 1582.04 410.492C1580.8 409.136 1579.44 407.164 1577.95 404.575C1576.22 401.493 1574.49 399.212 1572.76 397.733C1571.02 396.13 1568.49 395.329 1565.15 395.329C1556.61 395.329 1548.87 398.596 1541.94 405.13C1535.14 411.663 1530.31 420.971 1527.47 433.053L1522.64 453.025H1551.97L1550.48 459.497H1521.16L1502.41 537.165C1498.7 552.821 1493.13 564.225 1485.71 571.375C1478.41 578.649 1469.06 582.286 1457.68 582.286C1451.62 582.286 1446.48 581.115 1442.27 578.772C1438.07 576.43 1435.96 573.533 1435.96 570.081C1435.96 567.862 1436.71 566.074 1438.19 564.718C1439.68 563.362 1441.41 562.684 1443.39 562.684C1445.24 562.684 1446.73 563.239 1447.84 564.348C1449.08 565.458 1450.63 567.369 1452.48 570.081C1454.22 572.916 1455.89 575.074 1457.49 576.553C1459.1 578.033 1461.21 578.772 1463.8 578.772C1469.74 578.772 1474.76 575.628 1478.84 569.341C1482.92 563.054 1486.39 553.931 1489.23 541.973L1509.09 459.497H1463.99L1445.24 536.98C1441.41 552.636 1435.78 564.102 1428.35 571.375C1420.93 578.649 1411.53 582.286 1400.14 582.286C1394.2 582.286 1389.13 581.115 1384.92 578.772C1380.72 576.43 1378.61 573.533 1378.61 570.081C1378.61 567.862 1379.35 566.074 1380.84 564.718C1382.32 563.362 1383.99 562.684 1385.85 562.684C1387.71 562.684 1389.32 563.3 1390.68 564.533C1391.91 565.766 1393.34 567.615 1394.95 570.081C1396.8 573.04 1398.53 575.197 1400.14 576.553C1401.75 578.033 1403.85 578.772 1406.45 578.772C1417.71 578.772 1426.19 566.444 1431.88 541.788L1451.74 460.052L1436.52 459.127L1454.9 446.737L1457.31 437.121C1459.16 429.231 1462.69 422.266 1467.89 416.225C1473.09 410.061 1479.4 405.314 1486.82 401.986C1494.37 398.534 1502.35 396.808 1510.76 396.808C1515.34 396.808 1519.73 397.486 1523.94 398.842C1528.27 400.198 1531.55 401.924 1533.78 404.02C1538.73 400.198 1544.23 397.239 1550.3 395.144C1556.36 393.048 1562.67 392 1569.23 392ZM1502.97 453.025L1512.06 446.922L1515.59 432.128C1517.2 425.594 1520.17 419.369 1524.5 413.451C1523.26 409.506 1520.97 406.301 1517.63 403.835C1514.29 401.369 1510.64 400.137 1506.68 400.137C1498.14 400.137 1490.47 403.404 1483.66 409.938C1476.86 416.471 1472.03 425.841 1469.19 438.046L1465.48 453.025H1502.97Z" fill="#312F30"/>
<path d="M666.349 687.512V638.667H671.673V682.208H704.163V687.512H666.349Z" fill="#312F30"/>
<path d="M769.283 688C764.55 688 760.432 686.977 756.928 684.93C753.425 682.836 750.694 679.999 748.738 676.417C746.781 672.835 745.803 668.741 745.803 664.136V638.667H751.127V663.927C751.127 667.555 751.923 670.788 753.516 673.626C755.108 676.417 757.27 678.603 760 680.185C762.776 681.767 765.87 682.557 769.283 682.557C772.923 682.557 776.131 681.767 778.907 680.185C781.682 678.603 783.844 676.417 785.391 673.626C786.984 670.788 787.78 667.555 787.78 663.927V638.667H792.899V664.206C792.899 668.765 791.921 672.835 789.964 676.417C788.008 679.999 785.255 682.836 781.705 684.93C778.201 686.977 774.061 688 769.283 688Z" fill="#312F30"/>
<path d="M853.359 687.512V643.97H834.93V638.667H877.658V643.97H858.683V687.512H853.359Z" fill="#312F30"/>
<path d="M961.574 687.512V638.667H966.898V687.512H961.574ZM920.074 687.512V638.667H925.398V687.512H920.074ZM922.668 666.09L922.736 660.787H963.826V666.09H922.668Z" fill="#312F30"/>
<path d="M1016.97 687.512V638.667H1019.63C1020.68 638.667 1021.4 638.667 1021.81 638.667C1022.22 638.667 1022.38 638.667 1022.29 638.667V687.512H1016.97Z" fill="#312F30"/>
<path d="M1072.4 687.512V638.667H1110.9V643.97H1077.73V682.208H1110.76V687.512H1072.4ZM1075.27 665.043V659.74H1107.08V665.043H1075.27Z" fill="#312F30"/>
<path d="M1157.6 687.512V638.667H1183.88C1186.75 638.667 1189.32 639.318 1191.59 640.621C1193.91 641.923 1195.76 643.691 1197.12 645.924C1198.49 648.11 1199.17 650.552 1199.17 653.25C1199.17 656.274 1198.44 658.949 1196.99 661.275C1195.53 663.554 1193.55 665.345 1191.05 666.648C1188.59 667.95 1185.81 668.602 1182.72 668.602H1162.93V687.512H1157.6ZM1195.35 687.512L1179.24 666.02L1184.63 664.345L1201.97 687.512H1195.35ZM1162.93 663.299H1182.04C1184.22 663.299 1186.18 662.857 1187.91 661.973C1189.64 661.089 1191 659.903 1192 658.414C1193 656.925 1193.5 655.251 1193.5 653.39C1193.5 651.622 1193 650.041 1192 648.645C1191 647.203 1189.66 646.063 1187.98 645.226C1186.29 644.389 1184.43 643.97 1182.38 643.97H1162.93V663.299Z" fill="#312F30"/>
</svg>
