<svg width="1628" height="582" viewBox="0 0 1628 582" fill="none" xmlns="http://www.w3.org/2000/svg">
<rect width="1628" height="582" fill="#312F30"/>
<path d="M340.366 315.548C337.025 318.534 333.008 320.88 328.317 322.586C323.696 324.221 319.04 325.039 314.348 325.039C307.31 325.039 300.77 323.19 294.727 319.494C288.756 315.797 283.957 310.821 280.332 304.565C276.777 298.309 275 291.485 275 284.092C275 276.912 276.777 270.265 280.332 264.151C283.957 258.038 288.827 253.203 294.94 249.649C301.054 246.024 307.701 244.211 314.881 244.211C319.359 244.211 323.731 244.637 327.997 245.49C332.262 246.343 335.994 247.552 339.193 249.116V250.822L342.072 267.67C338.873 260.49 335.07 255.158 330.663 251.675C326.326 248.192 321.03 246.45 314.774 246.45C308.589 246.45 303.116 248.05 298.353 251.249C293.59 254.376 289.893 258.819 287.263 264.578C284.633 270.265 283.317 276.769 283.317 284.092C283.317 291.627 284.597 298.345 287.156 304.245C289.715 310.075 293.341 314.66 298.033 318.001C302.796 321.271 308.27 322.906 314.454 322.906C319.644 322.906 324.407 321.591 328.743 318.961C333.151 316.33 336.385 312.669 338.447 307.977V286.331H319.253V284.305H355.401L345.485 289.53V325.785L340.366 315.548Z" fill="#EFE1D4"/>
<path d="M382.852 325.039C378.018 325.039 373.717 323.937 369.949 321.733C366.253 319.458 363.374 316.259 361.312 312.136C359.25 308.013 358.22 303.214 358.22 297.741C358.22 292.196 359.286 287.255 361.419 282.919C363.551 278.582 366.466 275.205 370.163 272.788C373.93 270.3 378.125 269.056 382.745 269.056C386.584 269.056 389.996 269.909 392.982 271.615C396.039 273.322 398.385 275.739 400.02 278.867C401.726 281.923 402.579 285.442 402.579 289.423V290.063H365.684C365.4 292.338 365.257 294.151 365.257 295.501C365.257 300.264 366.075 304.494 367.71 308.191C369.345 311.887 371.655 314.766 374.641 316.828C377.627 318.89 381.11 319.92 385.091 319.92C389.57 319.92 393.409 318.641 396.608 316.082C399.807 313.451 402.188 309.648 403.752 304.672C402.401 311.141 399.878 316.153 396.181 319.707C392.556 323.261 388.113 325.039 382.852 325.039ZM391.703 288.464C393.977 288.464 395.115 287.255 395.115 284.838C395.115 282.492 394.546 280.253 393.409 278.12C392.342 275.916 390.849 274.139 388.93 272.788C387.082 271.367 385.02 270.656 382.745 270.656C378.622 270.656 375.032 272.291 371.975 275.561C368.919 278.76 366.893 283.061 365.897 288.464H391.703Z" fill="#EFE1D4"/>
<path d="M414.344 319.814V278.013L405.813 276.734L421.168 269.056V279.08C426.713 272.397 432.116 269.056 437.377 269.056C439.58 269.056 441.357 269.589 442.708 270.656C444.13 271.651 444.841 272.966 444.841 274.601C444.841 275.81 444.45 276.805 443.668 277.587C442.957 278.369 442.033 278.76 440.895 278.76C439.9 278.76 439.047 278.547 438.336 278.12C437.696 277.694 436.95 277.054 436.097 276.201C435.173 275.419 434.426 274.85 433.858 274.495C433.289 274.068 432.542 273.855 431.618 273.855C429.841 273.855 428.099 274.566 426.393 275.987C424.687 277.409 422.945 279.222 421.168 281.426V319.814L430.872 323.759H406.133L414.344 319.814Z" fill="#EFE1D4"/>
<path d="M454.048 319.814V278.013L445.517 276.734L460.872 269.056V276.414C464.498 274.281 467.839 272.54 470.896 271.189C474.024 269.767 476.761 269.056 479.107 269.056C482.021 269.056 484.652 269.803 486.998 271.296C489.415 272.717 491.263 274.743 492.543 277.374C501.286 271.829 507.862 269.056 512.27 269.056C516.464 269.056 519.983 270.514 522.826 273.428C525.741 276.343 527.198 280.146 527.198 284.838V319.814L535.409 323.759H511.63L520.374 319.814V285.371C520.374 281.817 519.201 278.795 516.855 276.307C514.58 273.819 511.772 272.575 508.431 272.575C504.734 272.575 499.58 274.566 492.969 278.547C493.68 280.395 494.035 282.492 494.035 284.838V319.814L502.886 323.759H478.467L487.317 319.814V285.371C487.317 281.817 486.145 278.795 483.799 276.307C481.524 273.819 478.716 272.575 475.375 272.575C471.891 272.575 467.057 274.352 460.872 277.907V319.814L469.616 323.759H445.837L454.048 319.814Z" fill="#EFE1D4"/>
<path d="M550.633 325.039C547.149 325.039 544.235 324.043 541.889 322.053C539.543 320.062 538.37 317.326 538.37 313.842C538.37 310.714 539.863 307.871 542.848 305.312C545.905 302.681 549.495 300.406 553.618 298.487C557.813 296.497 563.286 294.186 570.04 291.556L572.599 290.596V285.478C572.599 281.71 571.355 278.547 568.867 275.987C566.379 273.428 563.251 272.149 559.483 272.149C556.782 272.149 554.151 272.895 551.592 274.388C550.242 275.17 549.211 276.272 548.5 277.694C547.789 279.115 547.149 280.857 546.581 282.919C545.941 285.051 545.301 286.651 544.661 287.717C544.092 288.712 543.133 289.21 541.782 289.21C540.716 289.21 539.827 288.855 539.116 288.144C538.476 287.362 538.157 286.402 538.157 285.265C538.157 282.99 539.685 280.608 542.742 278.12C545.87 275.561 549.495 273.428 553.618 271.722C557.741 269.945 561.083 269.056 563.642 269.056C568.12 269.056 571.817 270.549 574.732 273.535C577.717 276.45 579.21 280.288 579.21 285.051V318.001L587.741 318.641L572.599 325.039V311.283C568.831 315.548 565.17 318.925 561.616 321.413C558.132 323.83 554.471 325.039 550.633 325.039ZM554.685 320.88C557.599 320.88 560.478 319.849 563.322 317.788C566.165 315.726 569.258 312.847 572.599 309.15V292.089C563.713 295.572 556.924 298.842 552.232 301.899C547.611 304.885 545.301 308.404 545.301 312.456C545.301 315.015 546.19 317.077 547.967 318.641C549.744 320.134 551.983 320.88 554.685 320.88ZM571.639 238.772L554.685 263.405L563.322 238.772H571.639Z" fill="#EFE1D4"/>
<path d="M596.978 319.814V278.013L588.447 276.734L603.803 269.056V277.907C607.997 275.277 611.765 273.144 615.106 271.509C618.518 269.874 621.539 269.056 624.17 269.056C628.435 269.056 631.989 270.514 634.833 273.428C637.676 276.343 639.098 280.146 639.098 284.838V319.814L647.309 323.759H623.53L632.274 319.814V285.371C632.274 281.817 631.136 278.795 628.861 276.307C626.587 273.819 623.743 272.575 620.331 272.575C618.127 272.575 615.674 273.215 612.973 274.495C610.272 275.703 607.215 277.338 603.803 279.4V319.814L612.546 323.759H588.767L596.978 319.814Z" fill="#EFE1D4"/>
<path d="M668.79 323.759L678.707 318.961V250.395L668.79 245.597H695.982L686.065 250.395V318.961L695.982 323.759H668.79Z" fill="#EFE1D4"/>
<path d="M706.51 319.814V278.013L697.98 276.734L713.335 269.056V276.414C716.96 274.281 720.302 272.54 723.358 271.189C726.486 269.767 729.223 269.056 731.569 269.056C734.484 269.056 737.114 269.803 739.46 271.296C741.877 272.717 743.725 274.743 745.005 277.374C753.749 271.829 760.325 269.056 764.732 269.056C768.926 269.056 772.445 270.514 775.289 273.428C778.203 276.343 779.661 280.146 779.661 284.838V319.814L787.871 323.759H764.092L772.836 319.814V285.371C772.836 281.817 771.663 278.795 769.317 276.307C767.042 273.819 764.234 272.575 760.893 272.575C757.197 272.575 752.043 274.566 745.431 278.547C746.142 280.395 746.498 282.492 746.498 284.838V319.814L755.348 323.759H730.929L739.78 319.814V285.371C739.78 281.817 738.607 278.795 736.261 276.307C733.986 273.819 731.178 272.575 727.837 272.575C724.354 272.575 719.52 274.352 713.335 277.907V319.814L722.079 323.759H698.3L706.51 319.814Z" fill="#EFE1D4"/>
<path d="M797.124 319.814V246.77L788.593 245.49L803.948 237.599V277.8C808 275.241 811.732 273.144 815.145 271.509C818.557 269.874 821.614 269.056 824.315 269.056C828.58 269.056 832.135 270.514 834.978 273.428C837.822 276.343 839.244 280.146 839.244 284.838V319.814L847.454 323.759H823.675L832.419 319.814V285.371C832.419 281.817 831.282 278.795 829.007 276.307C826.732 273.819 823.888 272.575 820.476 272.575C818.272 272.575 815.784 273.179 813.012 274.388C810.31 275.596 807.289 277.231 803.948 279.293V319.814L813.438 323.759H788.913L797.124 319.814Z" fill="#EFE1D4"/>
<path d="M876.231 325.039C871.539 325.039 867.132 323.759 863.009 321.2C858.957 318.641 855.722 315.193 853.305 310.856C850.959 306.449 849.786 301.686 849.786 296.568C849.786 291.591 850.959 287.006 853.305 282.812C855.722 278.618 858.957 275.277 863.009 272.788C867.132 270.3 871.539 269.056 876.231 269.056C880.923 269.056 885.259 270.3 889.24 272.788C893.292 275.277 896.491 278.618 898.837 282.812C901.254 287.006 902.463 291.591 902.463 296.568C902.463 301.686 901.254 306.449 898.837 310.856C896.491 315.193 893.292 318.641 889.24 321.2C885.259 323.759 880.923 325.039 876.231 325.039ZM876.231 323.333C879.857 323.333 883.056 322.266 885.828 320.134C888.672 317.93 890.875 314.802 892.439 310.75C894.003 306.698 894.785 301.97 894.785 296.568C894.785 291.449 894.003 286.935 892.439 283.025C890.947 279.115 888.778 276.094 885.935 273.961C883.162 271.758 879.928 270.656 876.231 270.656C872.535 270.656 869.264 271.722 866.421 273.855C863.577 275.916 861.374 278.902 859.81 282.812C858.246 286.722 857.464 291.307 857.464 296.568C857.464 301.899 858.21 306.591 859.703 310.643C861.267 314.695 863.471 317.823 866.314 320.027C869.158 322.231 872.463 323.333 876.231 323.333Z" fill="#EFE1D4"/>
<path d="M989.417 236C993.683 236 997.13 236.711 999.761 238.133C1002.46 239.483 1003.81 241.261 1003.81 243.464C1003.81 244.602 1003.42 245.597 1002.64 246.45C1001.86 247.303 1000.93 247.73 999.867 247.73C998.517 247.73 997.486 247.374 996.775 246.663C996.064 245.881 995.282 244.744 994.429 243.251C993.434 241.474 992.439 240.159 991.443 239.306C990.448 238.381 988.991 237.919 987.071 237.919C982.166 237.919 977.723 239.803 973.742 243.571C969.832 247.339 967.06 252.706 965.425 259.673L962.652 271.189H979.5L978.647 274.921H961.799L951.029 319.707C948.897 328.735 945.698 335.311 941.432 339.434C937.238 343.628 931.871 345.726 925.331 345.726C921.847 345.726 918.897 345.05 916.48 343.699C914.063 342.349 912.855 340.678 912.855 338.688C912.855 337.408 913.281 336.377 914.134 335.595C914.987 334.813 915.983 334.422 917.12 334.422C918.186 334.422 919.039 334.742 919.679 335.382C920.39 336.022 921.279 337.124 922.345 338.688C923.34 340.323 924.3 341.567 925.224 342.42C926.148 343.273 927.357 343.699 928.85 343.699C932.262 343.699 935.141 341.887 937.487 338.261C939.833 334.636 941.823 329.375 943.458 322.48L954.868 274.921H928.956L918.186 319.6C915.983 328.629 912.748 335.24 908.483 339.434C904.217 343.628 898.815 345.726 892.274 345.726C888.862 345.726 885.948 345.05 883.531 343.699C881.114 342.349 879.905 340.678 879.905 338.688C879.905 337.408 880.332 336.377 881.185 335.595C882.038 334.813 882.997 334.422 884.064 334.422C885.13 334.422 886.054 334.778 886.836 335.489C887.547 336.2 888.365 337.266 889.289 338.688C890.355 340.394 891.35 341.638 892.274 342.42C893.199 343.273 894.407 343.699 895.9 343.699C902.369 343.699 907.239 336.591 910.509 322.373L921.918 275.241L913.175 274.708L923.731 267.563L925.117 262.018C926.184 257.469 928.21 253.452 931.196 249.969C934.181 246.415 937.807 243.678 942.072 241.758C946.409 239.768 950.994 238.772 955.828 238.772C958.458 238.772 960.982 239.163 963.399 239.945C965.887 240.727 967.771 241.723 969.05 242.931C971.894 240.727 975.057 239.021 978.541 237.813C982.024 236.604 985.65 236 989.417 236ZM951.349 271.189L956.574 267.67L958.6 259.139C959.524 255.372 961.231 251.782 963.719 248.369C963.008 246.095 961.693 244.246 959.773 242.825C957.854 241.403 955.757 240.692 953.482 240.692C948.577 240.692 944.169 242.576 940.259 246.343C936.349 250.111 933.577 255.514 931.942 262.552L929.809 271.189H951.349Z" fill="#EFE1D4"/>
<path d="M1045.47 318.163V290.791H1048.52V315.191H1067.13V318.163H1045.47Z" fill="#EFE1D4"/>
<path d="M1104.43 318.436C1101.72 318.436 1099.36 317.863 1097.36 316.716C1095.35 315.543 1093.79 313.952 1092.66 311.945C1091.54 309.938 1090.98 307.644 1090.98 305.063V290.791H1094.03V304.946C1094.03 306.979 1094.49 308.791 1095.4 310.381C1096.31 311.945 1097.55 313.17 1099.12 314.057C1100.71 314.943 1102.48 315.386 1104.43 315.386C1106.52 315.386 1108.36 314.943 1109.95 314.057C1111.54 313.17 1112.78 311.945 1113.66 310.381C1114.58 308.791 1115.03 306.979 1115.03 304.946V290.791H1117.96V305.102C1117.96 307.657 1117.4 309.938 1116.28 311.945C1115.16 313.952 1113.58 315.543 1111.55 316.716C1109.54 317.863 1107.17 318.436 1104.43 318.436Z" fill="#EFE1D4"/>
<path d="M1152.6 318.163V293.762H1142.04V290.791H1166.52V293.762H1155.65V318.163H1152.6Z" fill="#EFE1D4"/>
<path d="M1214.6 318.163V290.791H1217.65V318.163H1214.6ZM1190.82 318.163V290.791H1193.87V318.163H1190.82ZM1192.31 306.158L1192.35 303.186H1215.89V306.158H1192.31Z" fill="#EFE1D4"/>
<path d="M1246.33 318.163V290.791H1247.86C1248.46 290.791 1248.87 290.791 1249.11 290.791C1249.34 290.791 1249.43 290.791 1249.38 290.791V318.163H1246.33Z" fill="#EFE1D4"/>
<path d="M1278.09 318.163V290.791H1300.14V293.762H1281.14V315.191H1300.07V318.163H1278.09ZM1279.73 305.571V302.6H1297.95V305.571H1279.73Z" fill="#EFE1D4"/>
<path d="M1326.9 318.163V290.791H1341.95C1343.59 290.791 1345.07 291.155 1346.37 291.885C1347.7 292.615 1348.76 293.606 1349.54 294.857C1350.32 296.082 1350.71 297.451 1350.71 298.963C1350.71 300.657 1350.29 302.156 1349.46 303.46C1348.63 304.737 1347.49 305.741 1346.06 306.471C1344.65 307.201 1343.06 307.566 1341.29 307.566H1329.95V318.163H1326.9ZM1348.52 318.163L1339.29 306.119L1342.38 305.18L1352.31 318.163H1348.52ZM1329.95 304.594H1340.9C1342.15 304.594 1343.27 304.346 1344.26 303.851C1345.25 303.356 1346.03 302.691 1346.61 301.857C1347.18 301.022 1347.47 300.084 1347.47 299.041C1347.47 298.051 1347.18 297.164 1346.61 296.382C1346.03 295.574 1345.26 294.935 1344.3 294.466C1343.33 293.997 1342.27 293.762 1341.09 293.762H1329.95V304.594Z" fill="#EFE1D4"/>
</svg>
